<svg width="106" height="46" viewBox="0 0 106 46" fill="none" xmlns="http://www.w3.org/2000/svg">
<path d="M10.3563 1V11.9161" stroke="#C9C9C9" stroke-width="2"/>
<path d="M0 11.3564H20.4327" stroke="#C9C9C9" stroke-width="2"/>
<path d="M10.0764 11.3564L1.39954 22.5524" stroke="#C9C9C9" stroke-width="2"/>
<path d="M10.6361 11.6357L19.313 22.8317" stroke="#C9C9C9" stroke-width="2"/>
<path d="M38.6907 1.5459V12.2732" stroke="#C9C9C9" stroke-width="2"/>
<path d="M28.3344 11.7227H48.767" stroke="#C9C9C9" stroke-width="2"/>
<path d="M38.4108 11.7227L29.7339 22.725" stroke="#C9C9C9" stroke-width="2"/>
<path d="M38.9705 11.9971L47.6473 22.9994" stroke="#C9C9C9" stroke-width="2"/>
<path d="M56.1233 22.3428L65.8856 2.58105L76.6755 22.3428" stroke="#C9C9C9" stroke-width="2"/>
<path d="M83.6781 2.56738L105.132 2.56738" stroke="#C9C9C9" stroke-width="2"/>
<path d="M83.6781 11.7617H105.132" stroke="#C9C9C9" stroke-width="2"/>
<path d="M83.6781 20.957H105.132" stroke="#C9C9C9" stroke-width="2"/>
<path d="M8.93854 39.5456C9.34599 40.2673 10.0539 40.8267 11.0656 41.0856L11.6492 40.1257C10.2196 39.7562 9.54972 38.8308 9.53936 37.9192H11.328V36.9385H9.55318V35.9751H8.29627V36.9385H6.5076V37.9192H8.29627C8.28591 38.9275 7.62638 39.9358 6.20373 40.3432L6.78729 41.317C7.84047 41.0166 8.5518 40.3674 8.93854 39.5456ZM11.0656 39.3936H12.5124V41.386H13.7555V36.0062H12.5124V38.3957H11.0656V39.3936ZM10.7169 41.5345C8.83149 41.5345 7.66091 42.1354 7.66436 43.2023C7.66091 44.2762 8.83149 44.9012 10.7169 44.8978C12.6091 44.9012 13.7762 44.2762 13.7797 43.2023C13.7762 42.1354 12.6091 41.5345 10.7169 41.5345ZM10.7169 43.9517C9.53936 43.9482 8.90055 43.6892 8.90401 43.2023C8.90055 42.7258 9.53936 42.4841 10.7169 42.4876C11.9185 42.4841 12.5401 42.7258 12.5435 43.2023C12.5401 43.6892 11.9185 43.9482 10.7169 43.9517Z" fill="#C9C9C9"/>
<path d="M35.0048 40.2362C36.6243 40.1119 37.75 39.6043 38.3059 38.8412C38.8619 39.6043 39.9876 40.1119 41.607 40.2362L42.0076 39.2866C40.1015 39.145 39.183 38.5304 39.0242 37.8363H41.5863V36.8764H38.924V36.0304H37.6878V36.8764H35.0428V37.8363H37.5843C37.4185 38.5304 36.5069 39.145 34.6077 39.2866L35.0048 40.2362ZM34.2555 41.5932H37.8087V43.0401H39.0414V41.5932H42.384V40.6057H34.2555V41.5932ZM35.2086 42.2528V44.7459H41.4896V43.741H36.4517V42.2528H35.2086Z" fill="#C9C9C9"/>
<path d="M67.9537 41.3135H69.2037V36.0062H67.9537V41.3135ZM64.5283 39.1036C64.9254 39.9185 65.6264 40.5504 66.6416 40.875L67.2562 39.8943C65.7956 39.4558 65.1602 38.3785 65.1671 37.27V36.4171H63.8757V37.27C63.8722 38.4061 63.2196 39.5594 61.7314 40.0394L62.3564 41.0166C63.4026 40.6782 64.1243 39.9807 64.5283 39.1036ZM67.9537 42.6948V44.9012H69.2037V41.6968H63.0953V42.6948H67.9537Z" fill="#C9C9C9"/>
<path d="M97.317 38.1816V36.0062H96.067V41.386H97.317V39.221H98.5117V38.1816H97.317ZM95.2728 39.8115C94.2334 39.9979 93.2977 40.0463 91.8508 40.0566V39.2831H94.6133V38.3232H91.8508V37.5843H94.7997V36.5967H90.5939V41.0407H91.3329C93.1354 41.0407 94.2127 40.9959 95.4144 40.7887L95.2728 39.8115ZM96.067 42.7465V44.9012H97.317V41.7521H91.3329V42.7465H96.067Z" fill="#C9C9C9"/>
</svg>
