<svg width="228" height="174" viewBox="0 0 228 174" fill="none" xmlns="http://www.w3.org/2000/svg">
<path d="M1 70.507L113.676 2L226.352 70.507" stroke="white" stroke-width="3"/>
<rect x="99.5" y="43.9648" width="12.7357" height="12.7357" fill="white" stroke="white"/>
<rect x="99.5" y="59.0742" width="12.7357" height="12.7357" fill="white" stroke="white"/>
<rect x="114.609" y="43.9648" width="12.7357" height="12.7357" fill="white" stroke="white"/>
<rect x="114.609" y="59.0742" width="12.7357" height="12.7357" fill="white" stroke="white"/>
<path d="M38.2014 93.4414V111.573" stroke="white" stroke-width="3"/>
<path d="M21 110.642H54.9378" stroke="white" stroke-width="3"/>
<path d="M37.7365 110.642L23.3245 129.238" stroke="white" stroke-width="3"/>
<path d="M38.6662 111.107L53.0782 129.703" stroke="white" stroke-width="3"/>
<path d="M87.1392 93.7549V111.572" stroke="white" stroke-width="3"/>
<path d="M69.9378 110.658H103.876" stroke="white" stroke-width="3"/>
<path d="M86.6743 110.658L72.2623 128.933" stroke="white" stroke-width="3"/>
<path d="M87.604 111.115L102.016 129.39" stroke="white" stroke-width="3"/>
<path d="M118.876 128.699L136.002 94.4453L154.932 128.699" stroke="white" stroke-width="3"/>
<path d="M169.932 95.3467L207.791 95.3467" stroke="white" stroke-width="3"/>
<path d="M169.932 111.572H207.791" stroke="white" stroke-width="3"/>
<path d="M169.932 127.798H207.791" stroke="white" stroke-width="3"/>
<path d="M36.4844 156.988C36.4844 157.724 36.6862 158.427 37.0898 159.098C37.4935 159.768 38.0371 160.354 38.7207 160.855C39.4043 161.35 40.1628 161.721 40.9961 161.969L40.3711 162.945C39.3555 162.62 38.4505 162.125 37.6562 161.461C36.8685 160.797 36.2858 160.019 35.9082 159.127C35.5566 160.11 34.987 160.979 34.1992 161.734C33.418 162.483 32.513 163.043 31.4844 163.414L30.8594 162.457C31.6862 162.164 32.4349 161.744 33.1055 161.197C33.776 160.644 34.3034 160.006 34.6875 159.283C35.0781 158.554 35.2734 157.789 35.2734 156.988V156.5H31.25V155.484H35.2734V153.199H36.5234V155.484H40.5078V156.5H36.4844V156.988ZM33.5938 167.359C33.5872 166.702 33.8118 166.142 34.2676 165.68C34.7233 165.211 35.3776 164.856 36.2305 164.615C37.0898 164.374 38.112 164.254 39.2969 164.254C40.4818 164.254 41.5039 164.374 42.3633 164.615C43.2227 164.856 43.8802 165.211 44.3359 165.68C44.7917 166.142 45.0195 166.702 45.0195 167.359C45.0195 168.01 44.7917 168.567 44.3359 169.029C43.8802 169.498 43.2227 169.853 42.3633 170.094C41.5039 170.341 40.4818 170.465 39.2969 170.465C38.112 170.465 37.0898 170.341 36.2305 170.094C35.3776 169.853 34.7233 169.498 34.2676 169.029C33.8118 168.567 33.5872 168.01 33.5938 167.359ZM34.8047 167.359C34.7982 167.789 34.9772 168.163 35.3418 168.482C35.7064 168.795 36.2272 169.036 36.9043 169.205C37.5879 169.381 38.3854 169.469 39.2969 169.469C40.2083 169.469 41.0026 169.381 41.6797 169.205C42.3633 169.036 42.8874 168.795 43.252 168.482C43.623 168.163 43.8086 167.789 43.8086 167.359C43.8086 166.93 43.623 166.555 43.252 166.236C42.8874 165.917 42.3665 165.673 41.6895 165.504C41.0124 165.328 40.2148 165.237 39.2969 165.23C38.3854 165.237 37.5879 165.328 36.9043 165.504C36.2272 165.673 35.7064 165.917 35.3418 166.236C34.9772 166.555 34.7982 166.93 34.8047 167.359ZM39.9609 158.316H43.7305V153.297H44.9609V163.746H43.7305V159.371H39.9609V158.316Z" fill="white"/>
<path d="M88.2188 155.211H93.8242V156.207H88.2773C88.2839 156.943 88.5768 157.6 89.1562 158.18C89.7422 158.759 90.5007 159.231 91.4316 159.596C92.3626 159.96 93.3555 160.204 94.4102 160.328L93.9805 161.285C92.5352 161.096 91.2298 160.712 90.0645 160.133C88.8991 159.547 88.082 158.792 87.6133 157.867C87.138 158.792 86.3177 159.547 85.1523 160.133C83.987 160.712 82.6849 161.096 81.2461 161.285L80.8164 160.328C81.8646 160.204 82.8509 159.96 83.7754 159.596C84.7064 159.231 85.4648 158.759 86.0508 158.18C86.6367 157.6 86.9362 156.943 86.9492 156.207H81.4219V155.211H87.0078V153.238H88.2188V155.211ZM79.7422 162.457H95.5039V163.492H88.3164V167.125H87.1055V163.492H79.7422V162.457ZM81.8125 165.387H83.043V169.078H93.7461V170.113H81.8125V165.387Z" fill="white"/>
<path d="M135.699 155.797C135.699 156.65 135.895 157.464 136.285 158.238C136.682 159.013 137.219 159.693 137.896 160.279C138.58 160.865 139.339 161.311 140.172 161.617L139.527 162.594C138.512 162.203 137.613 161.627 136.832 160.865C136.051 160.104 135.471 159.221 135.094 158.219C134.729 159.286 134.153 160.23 133.365 161.051C132.584 161.871 131.682 162.49 130.66 162.906L129.996 161.93C130.829 161.611 131.585 161.142 132.262 160.523C132.945 159.905 133.482 159.186 133.873 158.365C134.27 157.545 134.469 156.689 134.469 155.797V154.137H135.699V155.797ZM132.418 164.605H143.922V170.523H142.691V165.621H132.418V164.605ZM142.691 153.297H143.922V163.707H142.691V153.297Z" fill="white"/>
<path d="M180.891 161.695C182.759 161.695 184.247 161.663 185.354 161.598C186.46 161.533 187.57 161.396 188.684 161.188L188.82 162.223C187.746 162.411 186.688 162.542 185.646 162.613C184.611 162.678 183.312 162.711 181.75 162.711H180.891H179.621V154.488H187.473V155.523H180.852V158.023H187.18V159.039H180.852V161.695H180.891ZM180.988 164.645H192.18V170.523H190.949V165.68H180.988V164.645ZM190.949 153.297H192.18V158.004H194.836V159.078H192.18V163.746H190.949V153.297Z" fill="white"/>
</svg>
